<svg width="312" height="87" viewBox="0 0 312 87" fill="none" xmlns="http://www.w3.org/2000/svg">
<g clip-path="url(#clip0_137_78)">
<path d="M102.072 59.3413C92.3919 59.3413 84.9948 56.686 79.8783 51.3753C74.7619 46.0647 72.2036 38.9008 72.2036 29.8836C72.2036 23.9386 73.309 18.7798 75.5221 14.4026C77.7352 10.0277 81.0536 6.62243 85.4775 4.18235C89.9013 1.74454 95.4329 0.525635 102.072 0.525635C111.752 0.525635 119.114 3.18095 124.163 8.49157C129.21 13.8022 131.735 20.9344 131.735 29.8836C131.735 35.6949 130.611 40.822 128.366 45.2627C126.118 49.7056 122.799 53.1629 118.41 55.6324C114.019 58.102 108.574 59.339 102.074 59.339L102.072 59.3413ZM101.865 45.8155C105.391 45.8155 108.31 45.0995 110.628 43.6609C112.944 42.2245 114.672 40.2896 115.815 37.8495C116.955 35.4117 117.526 32.7564 117.526 29.8836C117.526 27.0108 116.955 24.2399 115.815 21.7681C114.674 19.2986 112.944 17.3275 110.628 15.8571C108.31 14.389 105.391 13.6527 101.865 13.6527C96.8157 13.6527 92.9609 15.1888 90.3001 18.2609C87.6369 21.3331 86.3077 25.2096 86.3077 29.8836C86.3077 32.6884 86.879 35.312 88.0194 37.7499C89.1597 40.1899 90.8714 42.1429 93.1521 43.611C95.4329 45.0814 98.3385 45.8155 101.865 45.8155Z" fill="url(#paint0_linear_137_78)"/>
<path d="M153.806 58.4169C148.274 58.4169 143.228 57.3498 138.664 55.211C134.1 53.0745 130.471 49.8687 127.773 45.5912C125.077 41.3182 123.762 36.0076 123.832 29.6593C123.9 23.447 125.266 18.1205 127.93 13.6776C130.59 9.23695 134.205 5.84758 138.766 3.50719C143.33 1.16906 148.447 0 154.116 0C159.785 0 164.936 1.01953 168.947 3.05633C172.956 5.09539 176.086 7.76656 178.334 11.0721C180.579 14.3777 182.016 17.9347 182.639 21.7432H167.704C167.357 19.2057 166.373 17.3343 164.75 16.1313C163.124 14.9282 161.326 14.1443 159.356 13.7773C157.385 13.4102 155.639 13.2267 154.118 13.2267C148.724 13.2267 144.715 14.5793 142.087 17.2845C139.459 19.9896 138.146 23.746 138.146 28.5559C138.146 33.8326 139.424 37.9424 141.982 40.8809C144.54 43.8217 148.549 45.2898 154.013 45.2898C155.604 45.2898 157.399 45.0746 159.407 44.6373C161.413 44.2046 163.227 43.3188 164.852 41.982C166.475 40.6476 167.462 38.6425 167.807 35.9713H182.846C182.154 39.9135 180.668 43.6042 178.387 47.0434C176.107 50.4849 172.942 53.2399 168.898 55.3084C164.855 57.3792 159.825 58.4146 153.808 58.4146L153.806 58.4169Z" fill="url(#paint1_linear_137_78)"/>
<path d="M176.713 58.1838V1.77197H191.13V58.1815H176.713V58.1838ZM190.922 41.2505V25.9213L212.078 1.77197H230.953V3.0747L190.92 41.2482L190.922 41.2505ZM215.709 58.1838L196.316 29.5281L206.792 19.6092L232.201 56.8833V58.186H215.712L215.709 58.1838Z" fill="url(#paint2_linear_137_78)"/>
<path d="M226.572 58.1838V1.77197H270.752V13.696H240.778V24.0159H263.077V35.2375H240.778V47.0595H271.892V58.1815H226.569L226.572 58.1838Z" fill="url(#paint3_linear_137_78)"/>
<path d="M264.919 13.696V1.77197H311.07V13.696H264.919ZM295.203 3.57541V58.1815H280.684V3.57541H295.203Z" fill="url(#paint4_linear_137_78)"/>
<path d="M46.7101 38.3299C46.5655 38.4545 46.3439 38.4455 46.2157 38.3095C46.2087 38.3027 46.204 38.2959 46.197 38.2891C46.3649 38.2144 46.5608 38.228 46.7101 38.3299Z" fill="url(#paint5_linear_137_78)"/>
<path d="M33.6017 58.608V0.152588H57.9037C63.1391 0.152588 67.6305 0.74165 71.3804 1.91751C75.1303 3.09564 78.029 4.96478 80.0812 7.52494C82.1333 10.0874 83.1594 13.513 83.1594 17.8041C83.1594 21.3339 82.6277 24.3291 81.5667 26.785C80.5056 29.2432 78.9828 31.1305 77.0029 32.4445C75.0207 33.7609 72.6863 34.4179 69.9999 34.4179C71.6976 34.4179 73.0245 34.7464 73.9783 35.4035C74.9344 36.0627 75.676 36.926 76.2077 37.9999C76.7394 39.0738 77.1451 40.1975 77.4273 41.3734C77.7095 42.5515 77.9917 43.6934 78.2762 44.799C78.5583 45.9069 78.9665 46.8426 79.4958 47.6016C80.0275 48.3651 80.8227 48.8137 81.8838 48.9519C82.9449 49.0924 84.3604 48.8137 86.1281 48.1204V56.0116C84.1459 57.6723 81.9538 58.7621 79.5494 59.2831C77.1428 59.802 74.8621 59.6638 72.705 58.8685C70.5455 58.0733 68.7592 56.5508 67.346 54.301C65.9305 52.0535 65.2239 48.9904 65.2239 45.1117C65.2239 43.7976 65.1516 42.5674 65.0117 41.4255C64.8694 40.2836 64.5149 39.2799 63.9506 38.4145C63.3839 37.549 62.5001 36.8399 61.2968 36.287C60.0934 35.7342 58.4657 35.3876 56.4159 35.2494C54.3637 35.1112 51.7098 35.1814 48.4567 35.4578V58.6103H33.5994L33.6017 58.608ZM48.459 25.2784H55.8865C59.1397 25.2784 61.7935 25.2444 63.8457 25.1742C65.8978 25.1062 67.4346 24.6395 68.4631 23.7717C69.4868 22.9063 70.0022 21.3317 70.0022 19.0479C70.0022 16.4877 69.3819 14.7047 68.1459 13.701C66.9076 12.6974 65.1026 12.1264 62.7333 11.9882C60.3616 11.85 57.4443 11.7798 53.9789 11.7798H48.4614V25.2784H48.459Z" fill="url(#paint6_linear_137_78)"/>
<path d="M28.3944 28.3517C28.1449 28.0006 27.8884 27.6539 27.6435 27.2982C27.4756 27.049 27.2611 26.8338 27.0092 26.6616L26.1277 26.0499C26.1067 26.034 26.0834 26.0204 26.0578 26.0113C25.5144 25.7938 24.978 25.5469 24.388 25.4563C24.1385 25.4178 23.8773 25.4427 23.6208 25.4246C23.2733 25.3974 22.9235 25.4223 22.5807 25.4971C22.2308 25.5763 21.8554 25.6058 21.5476 25.821C21.2374 25.8845 21.0182 26.1382 20.7104 26.2107C20.6847 26.2175 20.6614 26.2334 20.6451 26.2538C20.4748 26.5166 20.167 26.6299 19.9478 26.8474C19.7193 27.0694 19.5047 27.3028 19.3042 27.5474C19.085 27.8103 18.9007 28.1003 18.7608 28.4084C18.7422 28.4446 18.7235 28.4786 18.7002 28.5103C18.6465 28.5964 18.6046 28.5964 18.509 28.5126C18.4926 28.4922 18.4763 28.4718 18.4646 28.4492V28.4378C18.6489 28.3178 18.7188 28.1637 18.6116 27.9643C18.7305 27.8986 18.8191 27.7899 18.8588 27.6653C18.9497 27.4478 19.0616 27.237 19.1899 27.0399C19.3228 26.8134 19.4884 26.6049 19.6773 26.4192C19.9385 26.1563 20.258 25.957 20.5122 25.6851C20.6008 25.6035 20.7034 25.5378 20.8176 25.4948C21.0742 25.3724 21.333 25.2705 21.5872 25.1504C22.1329 24.8899 22.7322 24.7585 23.3386 24.7653C23.5205 24.7653 23.7187 24.8151 23.8843 24.6724C24.0009 24.8196 24.2225 24.8446 24.3764 24.7313C24.3834 24.7267 24.3904 24.7199 24.3974 24.7131C24.479 24.686 24.5676 24.7018 24.6329 24.7539C24.6795 24.8332 24.7542 24.8921 24.8451 24.9193C25.3978 25.0802 25.9272 25.3113 26.4146 25.6058C26.6967 25.7576 26.9066 25.9978 27.1491 26.1994C27.5712 26.5506 27.8301 27.0218 28.1356 27.4568C28.2242 27.6154 28.2918 27.7831 28.3408 27.9553C28.3874 28.0753 28.4224 28.1977 28.4644 28.32L28.3921 28.354L28.3944 28.3517Z" fill="url(#paint7_linear_137_78)"/>
<path d="M18.6093 27.9561C18.7166 28.1554 18.6443 28.3072 18.4647 28.4296C18.4227 28.2596 18.4764 28.0784 18.6093 27.9561Z" fill="url(#paint8_linear_137_78)"/>
<path d="M23.8373 46.4025C23.8373 46.4025 23.8284 46.3724 23.8329 46.3724C23.8528 46.3594 23.855 46.3745 23.8329 46.4025H23.8395H23.8373Z" fill="url(#paint9_linear_137_78)"/>
<path d="M28.3944 28.352L28.462 28.3066C28.462 28.3066 28.4783 28.327 28.4853 28.3384C28.5156 28.3973 28.5366 28.4562 28.4807 28.5151C28.4737 28.5196 28.4527 28.5196 28.4434 28.5151C28.3827 28.4834 28.3617 28.4131 28.3944 28.3542V28.352Z" fill="url(#paint10_linear_137_78)"/>
<path d="M23.8819 24.6593C23.7187 24.802 23.5181 24.7544 23.3362 24.7522C22.7298 24.7454 22.1305 24.8768 21.5848 25.1373C21.3259 25.2597 21.0694 25.3616 20.8152 25.4817C20.7009 25.527 20.596 25.5927 20.505 25.6765C20.2508 25.9484 19.929 26.1478 19.6702 26.4106C19.4813 26.5964 19.3157 26.8048 19.1828 27.0314C19.0522 27.2308 18.9426 27.4392 18.8516 27.6567C18.812 27.7836 18.7234 27.8901 18.6044 27.9558C18.5811 27.8538 18.6021 27.7473 18.6581 27.6567C18.8237 27.335 18.9542 26.9974 19.1944 26.7051C19.4883 26.3676 19.8078 26.0481 20.1459 25.7513C20.3931 25.5066 20.6939 25.3163 21.0251 25.194C21.1907 25.1373 21.3376 25.0422 21.4985 24.9742C22.1631 24.691 22.8674 24.6094 23.5834 24.5709C23.6907 24.5686 23.798 24.6004 23.8842 24.6593H23.8819Z" fill="url(#paint11_linear_137_78)" stroke="#EDEDED" stroke-width="0.878788" stroke-miterlimit="10"/>
<path d="M106.41 68.88C104.071 69.9041 101.818 70.8761 98.3036 71.8231C83.1105 75.9125 63.3187 74.3719 63.3187 74.3719C63.1624 71.6373 62.9689 68.8483 62.7357 66.005C62.4955 63.0732 62.2203 60.205 61.9171 57.4046C62.7986 57.0557 64.4334 56.435 66.8587 55.5287C72.7214 53.3582 78.5607 52.1756 79.4539 51.9966C82.1124 51.4664 86.1654 50.678 91.5081 50.5398C97.3265 50.388 101.613 51.0903 103.124 51.3532C104.775 51.6409 109.742 52.5879 114.91 55.6397C117.289 57.0444 118.396 58.1206 118.443 59.3939C118.485 60.6014 117.559 61.6346 115.663 63.1661C111.559 66.4875 107.678 68.325 106.407 68.88H106.41Z" fill="url(#paint12_linear_137_78)"/>
<path d="M79.4002 73.0664C78.4791 73.1208 77.1965 73.157 75.6574 73.0823C75.4358 73.0709 75.1653 73.0551 74.8318 73.0324C72.4345 72.8602 65.098 72.1148 63.1694 71.92C63.1018 70.9322 63.0085 69.6181 62.8849 68.0684C62.8033 67.0421 62.696 65.7779 62.4791 63.2495C62.3789 62.0827 62.2856 61.002 62.141 59.561C62.1013 59.1668 62.0687 58.8405 62.0454 58.6163C62.0454 58.6163 71.0796 54.5132 81.5574 53.2762C83.1968 53.0836 86.5129 52.7664 90.7082 53.0111C98.2383 53.4529 102.175 55.3356 103.56 56.0606C106.179 57.4291 107.907 58.333 108.149 59.9122C108.704 63.5145 101.032 67.3412 98.686 68.5102C96.5849 69.5592 89.6938 72.7651 79.3979 73.0664H79.4002Z" fill="url(#paint13_linear_137_78)" stroke="white" stroke-width="0.878788" stroke-miterlimit="10"/>
<path d="M95.4109 65.2118C97.618 64.3872 98.732 62.0135 97.8992 59.9101C97.0664 57.8069 94.6022 56.7704 92.3952 57.5953C90.1882 58.42 89.0741 60.7937 89.9069 62.8971C90.7397 65.0002 93.2039 66.0368 95.4109 65.2118Z" fill="url(#paint14_linear_137_78)" stroke="white" stroke-width="1.75758" stroke-miterlimit="10"/>
<path opacity="0.99" d="M60.2285 70.2933C59.986 67.1237 59.7434 63.954 59.5009 60.7844C60.4104 60.4876 61.3222 60.1908 62.2317 59.894C62.4299 62.0328 62.6188 64.1919 62.7984 66.3669C62.9127 67.758 63.0223 69.1423 63.1249 70.5221C62.1594 70.4473 61.194 70.3703 60.2262 70.2955L60.2285 70.2933Z" fill="url(#paint15_linear_137_78)" stroke="#C6C6C6" stroke-width="0.439394" stroke-miterlimit="10"/>
<path d="M60.0422 61.8179L59.9699 61.2877C59.9419 61.0906 60.0888 60.9049 60.2964 60.8777L61.5207 60.71C61.7282 60.6806 61.9171 60.8188 61.9451 61.0181L62.0174 61.5483C62.0454 61.7454 61.8985 61.9312 61.6909 61.9584L60.4666 62.126C60.2591 62.1555 60.0702 62.0173 60.0422 61.8179Z" fill="url(#paint16_linear_137_78)"/>
<path d="M60.1682 63.6712L60.1355 63.1388C60.1239 62.9394 60.2824 62.765 60.4923 62.7514L61.726 62.6698C61.9335 62.6562 62.1131 62.8057 62.1247 63.0051L62.1574 63.5375C62.169 63.7369 62.0105 63.9114 61.8006 63.925L60.5669 64.0065C60.3594 64.0201 60.1798 63.8706 60.1682 63.6712Z" fill="url(#paint17_linear_137_78)"/>
<path d="M60.3033 65.6351L60.2707 65.1027C60.259 64.9033 60.4176 64.7288 60.6275 64.7152L61.8611 64.6337C62.0686 64.6201 62.2482 64.7696 62.2599 64.969L62.2925 65.5014C62.3042 65.7008 62.1456 65.8752 61.9357 65.8888L60.7021 65.9704C60.4945 65.984 60.315 65.8345 60.3033 65.6351Z" fill="url(#paint18_linear_137_78)"/>
<path d="M60.4666 67.6695L60.434 67.1371C60.4223 66.9377 60.5809 66.7632 60.7908 66.7497L62.0244 66.6681C62.232 66.6545 62.4115 66.804 62.4232 67.0034L62.4558 67.5358C62.4675 67.7352 62.3089 67.9097 62.099 67.9232L60.8654 68.0048C60.6579 68.0184 60.4783 67.8689 60.4666 67.6695Z" fill="url(#paint19_linear_137_78)"/>
<path d="M60.6252 69.7064L60.5925 69.1739C60.5809 68.9746 60.7394 68.8001 60.9493 68.7865L62.183 68.705C62.3905 68.6914 62.5701 68.8409 62.5817 69.0403L62.6144 69.5727C62.626 69.7721 62.4675 69.9465 62.2576 69.9601L61.0239 70.0417C60.8164 70.0553 60.6368 69.9057 60.6252 69.7064Z" fill="url(#paint20_linear_137_78)"/>
<path d="M78.3485 67.3751C75.3962 67.8237 72.3879 68.3222 69.3306 68.8727C68.1856 69.0789 67.0522 69.2896 65.9259 69.5048C65.5877 70.5402 65.2309 71.3604 64.9464 71.9449C64.6246 72.6087 64.2818 73.2023 64.1442 73.4493C63.9833 73.737 63.7757 74.0859 63.6125 74.3419C62.9782 75.3275 61.6536 76.8704 58.643 78.3521C62.3439 78.2229 66.1801 78.0009 70.1398 77.6679C71.5717 77.5478 72.9849 77.4164 74.3818 77.2737C75.065 75.4702 75.781 73.6396 76.5295 71.7863C77.1335 70.291 77.7422 68.8183 78.3532 67.3706L78.3485 67.3751Z" fill="url(#paint21_linear_137_78)" stroke="white" stroke-width="0.878788" stroke-miterlimit="10"/>
<path d="M76.5316 68.3042C74.3068 68.7211 72.0425 69.1765 69.7408 69.6749C68.8802 69.8607 68.0267 70.051 67.1802 70.2413C66.9587 71.032 66.7115 71.6596 66.5156 72.1104C66.2917 72.6202 66.0515 73.0756 65.9559 73.2682C65.844 73.4902 65.697 73.7576 65.5804 73.9547C65.1327 74.7159 64.1766 75.9144 61.9402 77.1129C64.7432 76.9181 67.6443 76.6485 70.6362 76.2928C71.7183 76.1636 72.7864 76.0277 73.8404 75.8827C74.3022 74.5029 74.7849 73.1028 75.2909 71.6845C75.7014 70.5404 76.1142 69.4121 76.5316 68.3042Z" fill="url(#paint22_linear_137_78)" stroke="white" stroke-width="0.878788" stroke-miterlimit="10"/>
<path d="M77.3458 52.8073C74.3305 53.7589 71.2406 54.6923 68.0783 55.5963C66.896 55.9362 65.7207 56.2647 64.55 56.5864C63.7758 55.7753 63.0738 55.1749 62.5468 54.7603C61.9475 54.2891 61.3621 53.8948 61.1219 53.7272C60.8421 53.5323 60.4923 53.3035 60.2241 53.1404C59.1887 52.5128 57.2485 51.6881 53.7248 51.6995C57.3161 50.0999 61.0753 48.5253 65.0001 46.9983C66.4203 46.4455 67.8288 45.9108 69.2234 45.3965C70.6646 46.7649 72.1477 48.1424 73.6729 49.5267C74.9018 50.6437 76.1285 51.738 77.3458 52.8073Z" fill="url(#paint23_linear_137_78)" stroke="white" stroke-width="0.878788" stroke-miterlimit="10"/>
<path d="M75.2049 52.7847C72.8986 53.4282 70.5386 54.0558 68.1226 54.6584C67.2201 54.885 66.3199 55.1047 65.4291 55.3177C64.8718 54.6811 64.3611 54.2098 63.9786 53.8813C63.5425 53.5075 63.1134 53.1925 62.9362 53.0589C62.731 52.9048 62.4745 52.7213 62.2762 52.5899C61.516 52.0869 60.0795 51.4118 57.4186 51.3279C60.1797 50.2087 63.0668 49.1122 66.0798 48.0541C67.1688 47.6712 68.2485 47.3042 69.3189 46.9485C70.3613 48.0247 71.4364 49.1076 72.5394 50.1974C73.4303 51.0765 74.3188 51.9374 75.2026 52.7802L75.2049 52.7847Z" fill="url(#paint24_linear_137_78)" stroke="white" stroke-width="0.878788" stroke-miterlimit="10"/>
<path d="M2.98463 54.2461C2.77475 54.1985 2.57886 54.1033 2.41562 53.9674C1.77199 53.5165 1.25195 52.9275 0.892819 52.2455C0.694597 51.8513 0.54768 51.4344 0.449736 51.0039C0.284163 50.3401 0.214202 49.6582 0.237522 48.9762C0.242186 48.5911 0.302819 48.2036 0.344795 47.8185C0.379775 47.6667 0.396099 47.5103 0.393767 47.3563C0.391435 47.3042 0.398431 47.2521 0.412423 47.2022C0.508036 46.8533 0.603649 46.5044 0.715586 46.1555C0.783214 45.9471 0.834518 45.7296 0.909143 45.5189C1.14468 44.8686 1.43618 44.2388 1.78132 43.6361C2.08448 43.0833 2.44127 42.5577 2.84704 42.0683C3.06858 41.8055 3.2668 41.5246 3.49534 41.2685C3.70755 41.0329 3.95242 40.8245 4.17163 40.5934C4.85491 39.8888 5.70376 39.3903 6.51997 38.8511C6.93273 38.6019 7.36649 38.3867 7.8189 38.21C8.15005 38.065 8.48819 37.9403 8.83333 37.8135C8.96159 37.7682 9.09684 37.7523 9.22977 37.7161C9.37902 37.6821 9.49095 37.562 9.51194 37.4147C9.54925 37.1836 9.60522 36.9548 9.64953 36.7237C9.71949 36.3657 9.79645 36.01 9.85242 35.6498C9.94103 35.0766 10.1859 34.5578 10.4378 34.0367C10.7036 33.5088 11.0417 33.0171 11.4429 32.5731C11.802 32.1562 12.1564 31.7167 12.6532 31.4221C12.912 31.1525 13.2152 30.926 13.551 30.7493C14.0524 30.4411 14.5817 30.1806 15.1368 29.9721C16.0486 29.6708 16.9837 29.5689 17.9305 29.5032C18.0518 29.5168 18.1684 29.4443 18.2034 29.331C18.2617 29.186 18.3083 29.0342 18.3433 28.8824C18.3783 28.7328 18.3713 28.5697 18.4692 28.4361C18.4809 28.4587 18.4972 28.4791 18.5135 28.4995C18.6091 28.5811 18.6465 28.5765 18.7048 28.4972C18.7281 28.4655 18.7491 28.4293 18.7654 28.3953C18.9053 28.0871 19.0895 27.7971 19.3087 27.5343C19.5093 27.2896 19.7238 27.0563 19.9524 26.8343C20.1716 26.6168 20.4794 26.5035 20.6497 26.2407C20.666 26.218 20.6893 26.2044 20.7149 26.1976C21.0251 26.1296 21.242 25.8759 21.5521 25.8079C21.86 25.5927 22.2401 25.5632 22.5852 25.4839C22.9257 25.4069 23.2778 25.3843 23.6254 25.4114C23.8819 25.4296 24.1361 25.4024 24.3926 25.4432C24.9826 25.5338 25.519 25.7807 26.0623 25.9982C26.088 26.0096 26.109 26.0232 26.1323 26.0368L27.0138 26.6485C27.2656 26.8207 27.4802 27.0359 27.6481 27.2851C27.8883 27.6431 28.1495 27.9875 28.399 28.3386C28.364 28.3953 28.385 28.4678 28.4433 28.5018C28.448 28.5086 28.4736 28.5086 28.4806 28.5018C28.5366 28.4451 28.5133 28.3839 28.4853 28.325C28.4783 28.3137 28.4713 28.3046 28.462 28.2933C28.42 28.171 28.3827 28.0486 28.3384 27.9286C28.2941 27.7586 28.2288 27.5955 28.1448 27.4392C27.837 27.0064 27.5781 26.5352 27.1584 26.1818C26.9158 25.9801 26.7036 25.7422 26.4238 25.5882C25.9364 25.2914 25.4094 25.0603 24.8543 24.9017C24.7634 24.8745 24.6888 24.8156 24.6421 24.7363C24.845 24.7068 25.0502 24.7386 25.2321 24.8269C25.6892 24.9832 26.123 25.1939 26.5241 25.4545C26.727 25.5995 26.9415 25.7377 27.1281 25.8986C27.2843 26.0186 27.4242 26.1591 27.5455 26.3154C27.7647 26.6236 27.9932 26.9271 28.2148 27.2353C28.3174 27.3893 28.4013 27.5525 28.462 27.7246C28.6159 28.137 28.7325 28.5629 28.8118 28.9957C28.8351 29.1361 28.8328 29.2789 28.8048 29.4193C28.7908 29.5077 28.8188 29.6618 28.6882 29.6595C28.5949 29.6595 28.6136 29.51 28.5926 29.4284C28.4713 28.9368 28.2474 28.4723 27.9326 28.069C27.7134 27.7903 27.5222 27.4936 27.317 27.2058C27.1794 27.0155 27.0115 26.8456 26.8202 26.7051C26.3515 26.3403 25.8245 26.0503 25.2601 25.8442C25.2205 25.8306 25.1878 25.8079 25.1505 25.7989C24.36 25.6199 23.5624 25.4681 22.7461 25.6176C22.3194 25.6901 21.9043 25.8215 21.5148 26.005C21.249 26.1364 20.9901 26.2814 20.7429 26.4423C20.2042 26.7957 19.7378 27.2398 19.367 27.7564C19.0196 28.2231 18.7304 28.7261 18.5089 29.2562C18.4529 29.3944 18.4739 29.4307 18.6091 29.5032C18.7164 29.5553 18.8353 29.5893 18.9543 29.6028C19.2878 29.6618 19.6166 29.7297 19.9524 29.7728C20.3651 29.8362 20.7709 29.9314 21.1674 30.0582C21.825 30.2531 22.4313 30.5771 22.949 31.0075C22.9793 31.0325 22.9957 31.0687 22.9957 31.1072C22.984 31.1684 22.9234 31.1729 22.8674 31.1707C22.5852 31.1389 22.31 31.0642 22.0559 30.9441C21.7037 30.8172 21.3446 30.7153 20.9761 30.6382C20.6986 30.5771 20.4164 30.5453 20.1319 30.5431C19.6189 30.5204 19.1035 30.525 18.5905 30.5544C18.2127 30.5884 17.8396 30.6541 17.4711 30.747C16.8391 30.8897 16.2212 31.0936 15.6312 31.3542C15.5589 31.3882 15.4866 31.4267 15.4189 31.4697C14.8732 31.7892 14.3462 32.1381 13.8402 32.5119C13.6326 32.6773 13.4391 32.8586 13.2618 33.0579C12.7604 33.5541 12.3337 34.1137 11.9932 34.7232C11.6597 35.319 11.3962 35.9489 11.2097 36.5991C11.1467 36.8098 11.1094 37.0273 11.0954 37.2471C11.0931 37.4125 11.1164 37.4532 11.2913 37.4736C11.5175 37.5031 11.7483 37.5121 11.9746 37.5371C12.5785 37.5892 13.1685 37.7364 13.7212 37.9698C14.043 38.1261 14.3322 38.3346 14.5747 38.5883C14.5001 38.6382 14.4185 38.5996 14.3485 38.5883C13.9381 38.5113 13.537 38.4161 13.1219 38.3436C12.8724 38.2961 12.6275 38.2394 12.3733 38.2032C11.5198 38.0831 10.7059 38.253 9.89439 38.4818C9.77779 38.5158 9.66352 38.5475 9.54459 38.577C9.35803 38.6155 9.17846 38.6789 9.01056 38.765C8.86831 38.8421 8.72139 38.9078 8.56981 38.9644C7.72562 39.3065 6.9887 39.8231 6.25178 40.3306C5.99759 40.5232 5.75506 40.7293 5.52653 40.9536C5.24902 41.2028 4.96684 41.4475 4.70566 41.7104C4.0317 42.39 3.4417 43.14 2.94265 43.9465C2.6838 44.3725 2.44827 44.812 2.23839 45.2628C2.00053 45.7568 1.80464 46.2688 1.65306 46.7921C1.49914 47.3268 1.30325 47.8547 1.29159 48.4234C1.2846 48.7043 1.23096 48.9875 1.2193 49.273C1.20064 49.9844 1.2776 50.6958 1.44551 51.3868C1.57843 51.9646 1.78831 52.5242 2.06815 53.0521C2.23373 53.3919 2.46459 53.6978 2.74676 53.9583C2.83072 54.0421 2.90534 54.1328 2.97064 54.2279L2.98929 54.2461H2.98463Z" fill="url(#paint25_linear_137_78)" stroke="#EDEDED" stroke-width="0.878788" stroke-miterlimit="10"/>
<path d="M32.8952 45.1519C32.6247 45.5779 32.3169 45.9789 31.9694 46.3504C31.5823 46.7696 31.1415 47.1389 30.6565 47.447C30.6332 47.4606 30.6122 47.4742 30.5889 47.49C30.0642 47.9001 29.4182 48.0904 28.7932 48.2921C28.511 48.3827 28.2382 48.4983 27.9583 48.5911C27.8254 48.6365 27.8091 48.7271 27.8744 48.8381C27.9583 48.9378 28.054 49.0284 28.1589 49.11C28.2662 49.23 28.4364 49.2799 28.5973 49.2414C28.9168 49.1983 29.234 49.1326 29.5441 49.0465C29.8776 48.9333 30.1971 48.7973 30.5236 48.6704C30.7684 48.5957 31.0016 48.4937 31.2255 48.3714C31.482 48.2015 31.7409 48.0315 31.9997 47.8593L32.0044 47.8661C32.2049 47.7325 32.4078 47.6011 32.6107 47.4674C32.8113 47.3337 32.9955 47.1774 33.1587 47.0052C33.2963 46.8625 33.4176 46.7039 33.5622 46.5679C33.7021 46.4207 33.8327 46.2643 33.9563 46.1012C33.5645 45.8271 33.21 45.5076 32.8976 45.1497L32.8952 45.1519Z" fill="url(#paint26_linear_137_78)" stroke="#EDEDED" stroke-width="0.878788" stroke-miterlimit="10"/>
<path d="M16.8858 44.245C16.7972 44.1544 16.7622 44.0298 16.7925 43.9074C16.8485 43.2617 16.9721 42.6206 17.3499 42.0587C17.709 41.5195 18.1055 41.012 18.6955 40.6676C19.0196 40.4796 19.3228 40.253 19.6866 40.1261C20.4771 39.8474 21.3166 39.7319 22.1538 39.7863C22.7462 39.8225 23.3269 39.9494 23.8749 40.1646C24.0988 40.2507 24.311 40.3663 24.5022 40.509C24.7004 40.6631 24.9033 40.8103 25.0969 40.9689C25.4047 41.2363 25.6706 41.5489 25.8804 41.8933C26.2326 42.4393 26.4774 43.0442 26.608 43.6741C26.6663 43.9256 26.7013 44.1793 26.713 44.4376C26.734 44.8522 26.6897 45.2691 26.5777 45.6724C26.5661 45.7109 26.5241 45.7335 26.4844 45.7267C26.4588 45.7222 26.4355 45.7041 26.4238 45.6814C26.3585 45.5274 26.3025 45.3688 26.2582 45.2079C26.1323 44.748 25.9667 44.2994 25.7615 43.8644C25.6286 43.5971 25.4677 43.3433 25.2811 43.1077C24.8474 42.5164 24.2527 42.0519 23.5624 41.7574C23.1589 41.5716 22.7275 41.49 22.3078 41.3428C22.0792 41.2612 21.825 41.2952 21.5848 41.2793C21.0018 41.2544 20.4212 41.3496 19.8778 41.558C19.479 41.6894 19.1082 41.8842 18.7771 42.1357C18.3014 42.5209 17.821 42.9038 17.4595 43.3977C17.2589 43.6605 17.0864 43.9414 16.8905 44.2382L16.8858 44.245Z" fill="url(#paint27_linear_137_78)" stroke="#EDEDED" stroke-width="0.878788" stroke-miterlimit="10"/>
<path d="M9.70542 53.4141L9.79637 53.541C10.1975 54.2274 10.8271 54.6828 11.5104 55.0771C11.655 55.145 11.8042 55.2039 11.9558 55.2515C12.0561 55.2946 12.1564 55.3376 12.2543 55.3806C12.294 55.392 12.3173 55.4282 12.3149 55.4667C12.3103 55.5075 12.2706 55.537 12.2287 55.5324C11.9465 55.5642 11.662 55.5506 11.3868 55.4894C10.7875 55.3353 10.2208 55.0884 9.70775 54.7576C9.35095 54.5061 9.01981 54.2252 8.71431 53.9193C8.50676 53.7335 8.32253 53.5274 8.16862 53.2985C7.81882 52.7661 7.55763 52.1816 7.39905 51.5676C7.21949 50.8517 7.21249 50.1017 7.37573 49.379C7.44803 49.0346 7.54364 48.6971 7.65091 48.3617C7.77684 48.0038 7.95641 47.6662 8.18261 47.3558C8.65601 46.6535 9.29732 46.0689 10.0552 45.6521C10.7129 45.2896 11.4311 45.0381 12.1774 44.9112C12.7114 44.8228 13.2547 44.8274 13.7841 44.9293C13.8378 44.9384 13.8891 44.952 13.9404 44.9701C13.9637 44.9814 13.9823 45.0018 13.9893 45.0245C13.987 45.0494 13.9707 45.0721 13.9474 45.0834C13.8471 45.1196 13.7421 45.1491 13.6372 45.1717C13.0215 45.276 12.4502 45.5206 11.8719 45.7449C11.3495 45.9488 10.9227 46.3 10.461 46.5946C10.3654 46.6671 10.2791 46.7509 10.2045 46.8438C9.87332 47.1678 9.57949 47.5257 9.32763 47.9131C9.12941 48.2394 8.97783 48.5906 8.87522 48.9531C8.74463 49.3631 8.677 49.7913 8.67234 50.2196C8.66767 50.6455 8.70732 51.0714 8.79593 51.4906C8.95684 52.1385 9.16672 52.7571 9.60747 53.2804C9.64479 53.3235 9.67277 53.3665 9.70309 53.4118L9.70542 53.4141Z" fill="url(#paint28_linear_137_78)" stroke="#EDEDED" stroke-width="0.878788" stroke-miterlimit="10"/>
<path d="M58.3444 68.7685C57.0548 69.0925 55.7442 69.344 54.4243 69.5184C52.7849 69.7359 51.1222 69.7087 49.4968 69.4414C48.8228 69.3145 48.1629 69.1355 47.5216 68.9045C46.3509 68.483 45.2502 67.9053 44.2521 67.1848C43.8556 66.913 43.8603 66.8835 44.2008 66.5686C45.1755 65.651 46.2739 64.8648 47.4656 64.2282C48.3588 63.7343 49.3055 63.3333 50.285 63.0319C51.458 62.6627 52.673 62.4361 53.8996 62.3523C55.3012 62.2662 56.705 62.4157 58.0483 62.7918C58.1975 62.8144 58.3025 62.9413 58.2931 63.0863C58.3048 63.4466 58.3561 63.8023 58.3724 64.1625C58.454 65.5581 58.5077 66.9583 58.5776 68.3562C58.5846 68.3969 58.587 68.4377 58.5893 68.4785C58.6056 68.6212 58.496 68.7504 58.3491 68.7685C58.3491 68.7685 58.3444 68.7685 58.3421 68.7685H58.3444ZM46.4815 66.7C46.6471 66.8133 46.8173 66.9175 46.9945 67.0127C47.5519 67.2845 48.1372 67.4975 48.7435 67.6493C49.8303 67.937 50.9589 68.073 52.09 68.0526C53.5498 68.0435 55.005 67.8645 56.4252 67.5156C56.6514 67.4794 56.8753 67.425 57.0898 67.348C57.1924 67.3163 57.2601 67.2211 57.2554 67.1191C57.2134 66.2809 57.1691 65.4426 57.1225 64.6043C57.1131 64.4344 56.9942 64.3687 56.8263 64.3573C56.4718 64.3302 56.1174 64.3007 55.7652 64.2644C54.2284 64.1172 52.7243 64.346 51.2271 64.6859C50.5765 64.8467 49.9375 65.0552 49.3195 65.3089C48.6456 65.5355 47.9903 65.8119 47.3583 66.1336C47.0365 66.2741 46.738 66.4598 46.4768 66.6887L46.4815 66.7Z" fill="url(#paint29_linear_137_78)"/>
<path d="M54.1818 71.7477C54.1981 71.9539 54.1608 72.1623 54.0792 72.3572C53.8273 73.089 53.3983 73.7551 52.8292 74.3033C52.4958 74.6115 52.1273 74.8833 51.7309 75.1099C51.1222 75.4769 50.4692 75.7624 49.7836 75.964C49.3988 76.0841 48.9977 76.1566 48.6036 76.2427C48.4427 76.2608 48.2841 76.2948 48.1302 76.3492C48.0789 76.3696 48.0253 76.3787 47.9717 76.3809C47.5985 76.4058 47.2207 76.4353 46.8406 76.4466C46.6121 76.4534 46.3836 76.4761 46.1527 76.4783C45.4368 76.4761 44.7255 76.4149 44.0212 76.2994C43.3822 76.2042 42.7526 76.0501 42.1463 75.8394C41.8198 75.7239 41.4817 75.6355 41.1598 75.5109C40.8613 75.3954 40.5815 75.2413 40.2877 75.1144C39.3828 74.7225 38.6319 74.113 37.853 73.5444C37.4822 73.2498 37.1371 72.9236 36.827 72.5724C36.5821 72.3187 36.3582 72.0513 36.1273 71.7794C36.0434 71.6797 35.9874 71.5597 35.9105 71.4509C35.8312 71.3263 35.6773 71.2629 35.528 71.2923C35.2878 71.3331 35.0453 71.358 34.8028 71.392C34.4273 71.4441 34.0495 71.4917 33.6764 71.5574C33.0817 71.6639 32.4941 71.6095 31.9017 71.5506C31.2977 71.4804 30.7077 71.3331 30.1481 71.1133C29.6257 70.923 29.0847 70.744 28.6439 70.3883C28.2988 70.2411 27.9816 70.0394 27.7064 69.7902C27.2494 69.4345 26.8319 69.0358 26.4588 68.6008C25.8851 67.8712 25.5027 67.0511 25.1529 66.2128C25.1296 66.0972 25.0223 66.0157 24.8987 66.0202C24.7354 66.0157 24.5745 66.0202 24.4136 66.0406C24.2551 66.0587 24.0965 66.1176 23.9332 66.0701C23.9519 66.0519 23.9682 66.0315 23.9822 66.0089C24.0358 65.8956 24.0172 65.8639 23.9216 65.8367C23.8819 65.8254 23.8423 65.8186 23.8003 65.814C23.4528 65.7869 23.11 65.7144 22.7835 65.5988C22.4804 65.4969 22.1842 65.3768 21.8974 65.2408C21.6152 65.114 21.41 64.8693 21.0975 64.799C21.0718 64.7922 21.0485 64.7764 21.0345 64.7537C20.8736 64.4932 20.5565 64.3776 20.3979 64.1194C20.0924 63.9087 19.9478 63.5733 19.7659 63.2833C19.5887 62.9979 19.4581 62.6875 19.3811 62.3612C19.3228 62.1233 19.2179 61.9013 19.1829 61.6544C19.0966 61.0879 19.1806 60.5193 19.2319 59.9529C19.2342 59.9279 19.2412 59.9008 19.2505 59.8781L19.5933 58.879C19.6889 58.5935 19.8382 58.3284 20.0341 58.0951C20.3163 57.7597 20.5798 57.4108 20.8526 57.0687C20.9202 57.0823 20.9855 57.0393 20.9995 56.9758C21.0065 56.969 20.9995 56.9441 20.9902 56.9419C20.9156 56.9101 20.8643 56.9487 20.8153 56.9962C20.806 57.0053 20.799 57.0166 20.792 57.0257C20.6824 57.105 20.5728 57.1775 20.4678 57.259C20.3139 57.3542 20.1693 57.4675 20.0411 57.5944C19.7053 58.0158 19.3135 58.4055 19.0919 58.9016C18.966 59.1871 18.7934 59.4567 18.7258 59.7626C18.5789 60.3018 18.5089 60.8569 18.5183 61.4142C18.5183 61.5048 18.4833 61.5932 18.418 61.6612C18.3294 61.4867 18.2967 61.2896 18.3317 61.0947C18.3504 60.628 18.4273 60.1658 18.5649 59.715C18.6489 59.4816 18.7188 59.2437 18.8238 59.0217C18.8961 58.8405 18.994 58.666 19.1106 58.5074C19.3508 58.2061 19.584 57.9025 19.8219 57.5989C19.9431 57.4562 20.0807 57.327 20.2323 57.2137C20.5961 56.9396 20.9809 56.6949 21.3867 56.4819C21.5196 56.4162 21.6618 56.3709 21.8087 56.3483C21.8997 56.3324 22.0443 56.2554 22.0816 56.3754C22.1119 56.4593 21.9557 56.4933 21.881 56.5386C21.4286 56.8082 21.0368 57.1639 20.7314 57.5808C20.5215 57.8708 20.2836 58.1426 20.0621 58.4213C19.9151 58.6094 19.7962 58.8155 19.7146 59.0353C19.4954 59.5813 19.3648 60.1545 19.3298 60.7345C19.3298 60.7753 19.3158 60.8138 19.3182 60.8501C19.3788 61.6272 19.4697 62.402 19.8638 63.0976C20.0644 63.4623 20.3186 63.7976 20.6194 64.0922C20.8293 64.2915 21.0508 64.4796 21.284 64.6518C21.7971 65.0279 22.3778 65.3065 23.0004 65.4742C23.5671 65.6396 24.1548 65.737 24.7471 65.7665C24.901 65.7733 24.929 65.7415 24.9617 65.5965C24.9803 65.481 24.978 65.3632 24.9547 65.2499C24.9127 64.9282 24.88 64.6065 24.8217 64.287C24.7611 63.8905 24.7331 63.4895 24.7378 63.0885C24.7331 62.4269 24.8707 61.7699 25.1412 61.1582C25.1575 61.1242 25.1879 61.097 25.2252 61.0834C25.2881 61.0744 25.3138 61.1265 25.3254 61.1786C25.3791 61.4459 25.3861 61.7201 25.3441 61.9897C25.3231 62.3499 25.3301 62.7124 25.3651 63.0726C25.3884 63.3445 25.4397 63.6119 25.5237 63.8724C25.6566 64.3459 25.8152 64.8126 25.9994 65.2703C26.1463 65.6033 26.3236 65.9205 26.5264 66.2241C26.8599 66.752 27.247 67.2482 27.6831 67.7013C27.7391 67.7579 27.7974 67.8101 27.8627 67.8576C28.3431 68.2496 28.8468 68.6166 29.3715 68.9542C29.5977 69.0901 29.8379 69.2057 30.0851 69.3031C30.7287 69.5976 31.412 69.8038 32.1163 69.9148C32.8089 70.0236 33.5108 70.0576 34.2128 70.0168C34.4413 70.0055 34.6675 69.9692 34.889 69.9103C35.0546 69.8582 35.0873 69.8242 35.0546 69.6588C35.015 69.4436 34.9567 69.2306 34.9124 69.0154C34.7818 68.449 34.7491 67.8644 34.8168 67.2844C34.8751 66.9423 34.994 66.6115 35.1735 66.3057C35.2435 66.3578 35.2318 66.4439 35.2388 66.5119C35.2855 66.9106 35.3135 67.3048 35.3648 67.7081C35.3928 67.9505 35.4091 68.1929 35.4511 68.4331C35.591 69.2487 36.0014 69.9352 36.4748 70.5968C36.5424 70.6897 36.6101 70.7848 36.6754 70.8845C36.7687 71.0408 36.8853 71.1836 37.0228 71.3082C37.1418 71.4124 37.2514 71.5234 37.3517 71.6435C37.9463 72.2983 38.6786 72.8012 39.4062 73.3065C39.6743 73.4764 39.9519 73.6282 40.241 73.7619C40.5722 73.9318 40.8986 74.1108 41.2368 74.2626C42.1136 74.6522 43.0348 74.9468 43.9839 75.1371C44.4853 75.2322 44.9913 75.3047 45.4997 75.3501C46.0617 75.4044 46.6284 75.4158 47.1928 75.384C47.7688 75.3501 48.3518 75.3569 48.9208 75.1824C49.2006 75.0963 49.4991 75.0533 49.7836 74.9717C50.4949 74.7565 51.1782 74.4574 51.8125 74.0768C52.3465 73.7664 52.8386 73.3948 53.277 72.9689C53.5638 72.7083 53.7994 72.3979 53.9719 72.0581C54.0302 71.9561 54.0979 71.8587 54.1725 71.7658L54.1841 71.7409L54.1818 71.7477Z" fill="url(#paint30_linear_137_78)" stroke="#EDEDED" stroke-width="0.878788" stroke-miterlimit="10"/>
<path d="M52.9831 60.5308C53.0298 60.558 53.0741 60.5852 53.1184 60.6124C53.193 60.4017 53.2653 60.1887 53.3423 59.978C53.4006 59.7922 53.4356 59.5997 53.4449 59.4048C53.4705 59.1624 53.4589 58.9154 53.4612 58.6707C53.4426 58.204 53.3656 57.7441 53.228 57.2978C53.1954 57.1052 53.0997 56.9285 52.9575 56.7903C52.9179 56.8741 52.9132 56.9693 52.9435 57.0531C53.1347 57.5765 53.2537 58.1202 53.2933 58.6753C53.3306 58.9834 53.256 59.2915 53.2303 59.5997C53.2024 59.9236 53.1021 60.2295 52.9878 60.5308H52.9831Z" fill="url(#paint31_linear_137_78)" stroke="#EDEDED" stroke-width="0.878788" stroke-miterlimit="10"/>
<path d="M33.5852 53.6411C33.5316 53.3987 33.492 53.1517 33.4686 52.9002C33.464 52.9002 33.4617 52.9025 33.457 52.9048C33.3241 52.9795 33.1562 52.9659 33.0396 52.8708C32.9323 52.7915 32.839 52.6963 32.7247 52.6261C32.4146 52.4403 32.1137 52.2545 31.7966 52.0891C31.3838 51.8512 30.9477 51.6473 30.4977 51.4819C29.5672 51.1829 28.6507 50.8362 27.6596 50.7411C27.3378 50.7116 27.0206 50.6505 26.6988 50.6323C26.349 50.6119 25.9992 50.6323 25.6494 50.621C25.0011 50.6074 24.3528 50.6527 23.7115 50.7569C23.0027 50.8612 22.3054 51.0198 21.6221 51.235C21.4029 51.3075 21.1907 51.4004 20.9761 51.4751C20.617 51.602 20.2695 51.7425 19.9221 51.8807C19.8708 51.8988 19.8241 51.926 19.7821 51.96C19.6539 52.0574 19.514 52.139 19.367 52.2047C19.0196 52.4063 18.6604 52.5966 18.334 52.8277C17.7486 53.2265 17.2193 53.6955 16.7622 54.2256C16.459 54.5609 16.1978 54.928 15.9833 55.3199C15.6218 56.0109 15.4353 56.7699 15.4376 57.538C15.4213 57.7464 15.4562 57.9526 15.5402 58.1452V58.118C15.5845 58.0092 15.6172 57.8959 15.6381 57.7804C15.6894 57.4066 15.8107 57.0418 15.9973 56.7087C16.2748 56.1741 16.6199 55.6734 17.0234 55.218C17.5038 54.6674 18.0518 54.1758 18.6604 53.7566C18.9053 53.5935 19.1735 53.4598 19.4137 53.2944C19.8964 52.9569 20.4538 52.7847 20.9925 52.5785C21.5195 52.3746 22.0628 52.2137 22.6155 52.0959C23.1169 51.9849 23.6205 51.8988 24.1313 51.8354C25.099 51.7266 26.0738 51.7244 27.0393 51.8263C27.4124 51.8671 27.7832 51.9351 28.154 51.9962C28.4735 52.0348 28.7906 52.0937 29.1008 52.173C29.9613 52.429 30.8241 52.6805 31.6077 53.1177C31.743 53.1993 31.8852 53.2718 32.0321 53.3352C32.2047 53.41 32.3633 53.5097 32.5032 53.6298C32.5965 53.7023 32.6921 53.7725 32.79 53.8405C33.0232 54.0081 33.2494 54.1803 33.464 54.3661C33.5013 54.2279 33.5479 54.0919 33.5969 53.956C33.5922 53.9039 33.5876 53.8495 33.5852 53.7974C33.5829 53.7453 33.5852 53.6932 33.5852 53.6411Z" fill="url(#paint32_linear_137_78)" stroke="#EDEDED" stroke-width="0.878788" stroke-miterlimit="10"/>
<path d="M52.7476 58.7231C52.7476 58.6982 52.7453 58.671 52.7406 58.6461C52.6031 58.0955 52.4934 57.5337 52.2229 57.0262C52.1063 56.8041 51.9338 56.6252 51.7985 56.419C51.6166 56.1358 51.3904 55.882 51.1246 55.6668C50.854 55.4493 50.6068 55.1752 50.2454 55.0709C50.0658 54.9237 49.828 54.8806 49.6204 54.7832C49.6204 54.8489 49.6204 54.9146 49.6181 54.9803C49.7627 55.037 49.9072 55.0981 50.0495 55.1638C50.4343 55.3496 50.7864 55.5875 51.0989 55.873C51.7052 56.4099 52.048 57.1123 52.3629 57.8282C52.3768 57.8622 52.3768 57.903 52.3885 57.9415C52.5494 58.5011 52.6147 59.0811 52.5867 59.6634C52.5821 59.8763 52.5448 60.0848 52.4795 60.2887C52.5471 60.3159 52.6124 60.3453 52.68 60.377C52.7313 60.1799 52.757 59.9783 52.7546 59.7744L52.7476 58.7254V58.7231Z" fill="url(#paint33_linear_137_78)" stroke="#EDEDED" stroke-width="0.878788" stroke-miterlimit="10"/>
<path d="M146.339 78.6621C145.966 78.6621 145.537 78.5986 145.051 78.4718C144.566 78.363 144.091 78.1727 143.624 77.9008C143.177 77.629 142.803 77.2302 142.505 76.7046C142.206 76.179 142.057 75.5083 142.057 74.6927H143.232C143.232 75.1096 143.316 75.5446 143.484 75.9977C143.652 76.4327 143.96 76.8043 144.408 77.1124C144.874 77.4205 145.518 77.5746 146.339 77.5746C147.365 77.5746 148.12 77.3118 148.605 76.7861C149.109 76.2605 149.361 75.3905 149.361 74.1761V63.573H150.62V74.0674C150.62 74.7924 150.536 75.4449 150.368 76.0249C150.201 76.5868 149.939 77.0671 149.585 77.4658C149.249 77.8646 148.811 78.1636 148.27 78.363C147.747 78.5624 147.104 78.6621 146.339 78.6621ZM146.311 64.144V63.1108H150.62V64.144H146.311ZM174.801 78.7708C172.767 78.7708 171.191 78.1727 170.072 76.9765C168.952 75.7621 168.393 74.0583 168.393 71.8652V63.0836H169.68V71.8652C169.68 72.8258 169.801 73.6686 170.044 74.3936C170.286 75.1005 170.631 75.6986 171.079 76.188C171.527 76.6593 172.068 77.0127 172.702 77.2483C173.336 77.484 174.036 77.6018 174.801 77.6018C175.92 77.6018 176.853 77.3933 177.599 76.9765C178.364 76.5596 178.943 75.9252 179.334 75.0733C179.745 74.2215 179.95 73.1521 179.95 71.8652V63.0836H181.209V71.8652C181.209 74.0946 180.659 75.8074 179.558 77.0036C178.476 78.1818 176.89 78.7708 174.801 78.7708ZM210.408 63.0836H211.667V78.3902H209.316L200.249 63.6546H200.193V78.3902H198.934V63.0836H201.145L210.352 77.8193H210.408V63.0836ZM231.657 77.9008V63.573H232.916V77.9008H231.657ZM229.446 78.3902V77.3027H235.1V78.3902H229.446ZM229.446 64.1983V63.0836H235.1V64.1983H229.446ZM259.677 78.7708C257.214 78.7708 255.339 78.0549 254.052 76.623C252.765 75.173 252.121 73.2246 252.121 70.7777C252.121 69.1646 252.401 67.769 252.961 66.5908C253.52 65.3946 254.36 64.4702 255.479 63.8177C256.599 63.1471 257.998 62.8118 259.677 62.8118C262.14 62.8118 264.005 63.5368 265.274 64.9868C266.561 66.4186 267.205 68.349 267.205 70.7777C267.205 72.3546 266.916 73.7502 266.337 74.9646C265.778 76.1608 264.938 77.0943 263.819 77.7649C262.718 78.4355 261.337 78.7708 259.677 78.7708ZM259.677 77.6018C261.076 77.6018 262.233 77.3208 263.147 76.759C264.08 76.179 264.779 75.3815 265.246 74.3665C265.731 73.3333 265.973 72.1371 265.973 70.7777C265.973 69.4002 265.74 68.204 265.274 67.189C264.826 66.174 264.127 65.3855 263.175 64.8236C262.242 64.2618 261.076 63.9808 259.677 63.9808C257.606 63.9808 256.039 64.579 254.976 65.7752C253.912 66.9715 253.381 68.639 253.381 70.7777C253.381 72.119 253.604 73.3061 254.052 74.3393C254.5 75.3543 255.19 76.1518 256.123 76.7318C257.074 77.3118 258.259 77.6018 259.677 77.6018ZM284.655 78.3902V63.0836H289.552C290.877 63.0836 291.996 63.2105 292.911 63.4643C293.825 63.718 294.515 64.153 294.981 64.7693C295.466 65.3855 295.709 66.2555 295.709 67.3793C295.709 68.068 295.578 68.7115 295.317 69.3096C295.056 69.9077 294.646 70.3971 294.086 70.7777C293.545 71.1402 292.836 71.3215 291.959 71.3215C292.687 71.3215 293.256 71.4574 293.666 71.7293C294.077 71.983 294.366 72.3183 294.534 72.7352C294.72 73.1521 294.832 73.6052 294.869 74.0946C294.925 74.584 294.953 75.0643 294.953 75.5355C294.953 76.0068 294.981 76.4236 295.037 76.7861C295.093 77.1486 295.224 77.4024 295.429 77.5474C295.634 77.6924 295.961 77.6924 296.409 77.5474V78.4446C296.315 78.5171 296.129 78.5805 295.849 78.6349C295.588 78.6893 295.299 78.6711 294.981 78.5805C294.664 78.4899 294.394 78.2815 294.17 77.9552C293.946 77.629 293.834 77.1305 293.834 76.4599C293.834 75.4086 293.787 74.5658 293.694 73.9315C293.62 73.2971 293.442 72.8168 293.162 72.4905C292.901 72.1643 292.481 71.9377 291.903 71.8108C291.325 71.684 290.551 71.6205 289.58 71.6205C288.629 71.6205 287.416 71.6296 285.943 71.6477V78.3902H284.655ZM285.943 70.6418H290.056C291.082 70.6418 291.922 70.5511 292.575 70.3699C293.246 70.1705 293.741 69.8443 294.058 69.3911C294.394 68.9199 294.562 68.2674 294.562 67.4336C294.562 66.473 294.356 65.7661 293.946 65.313C293.536 64.8418 292.948 64.5336 292.183 64.3886C291.418 64.2436 290.485 64.1711 289.385 64.1711H285.943V70.6418Z" fill="#EDEDED"/>
</g>
<defs>
<linearGradient id="paint0_linear_137_78" x1="72.2013" y1="29.9335" x2="131.733" y2="29.9335" gradientUnits="userSpaceOnUse">
<stop stop-color="#E30613"/>
<stop offset="1" stop-color="#BE1622"/>
</linearGradient>
<linearGradient id="paint1_linear_137_78" x1="123.83" y1="29.2084" x2="182.844" y2="29.2084" gradientUnits="userSpaceOnUse">
<stop stop-color="#E30613"/>
<stop offset="1" stop-color="#BE1622"/>
</linearGradient>
<linearGradient id="paint2_linear_137_78" x1="176.713" y1="29.979" x2="232.199" y2="29.979" gradientUnits="userSpaceOnUse">
<stop stop-color="#E30613"/>
<stop offset="1" stop-color="#BE1622"/>
</linearGradient>
<linearGradient id="paint3_linear_137_78" x1="226.572" y1="29.979" x2="271.892" y2="29.979" gradientUnits="userSpaceOnUse">
<stop stop-color="#E30613"/>
<stop offset="1" stop-color="#BE1622"/>
</linearGradient>
<linearGradient id="paint4_linear_137_78" x1="264.919" y1="29.979" x2="311.07" y2="29.979" gradientUnits="userSpaceOnUse">
<stop stop-color="#E30613"/>
<stop offset="1" stop-color="#BE1622"/>
</linearGradient>
<linearGradient id="paint5_linear_137_78" x1="46.4109" y1="38.2094" x2="46.4953" y2="38.4353" gradientUnits="userSpaceOnUse">
<stop stop-color="#E30613"/>
<stop offset="1" stop-color="#BE1622"/>
</linearGradient>
<linearGradient id="paint6_linear_137_78" x1="33.6017" y1="29.8708" x2="86.1327" y2="29.8708" gradientUnits="userSpaceOnUse">
<stop stop-color="#E30613"/>
<stop offset="1" stop-color="#BE1622"/>
</linearGradient>
<linearGradient id="paint7_linear_137_78" x1="22.1156" y1="24.934" x2="24.0061" y2="29.9928" gradientUnits="userSpaceOnUse">
<stop stop-color="#E30613"/>
<stop offset="1" stop-color="#BE1622"/>
</linearGradient>
<linearGradient id="paint8_linear_137_78" x1="18.463" y1="28.0088" x2="18.6015" y2="28.3795" gradientUnits="userSpaceOnUse">
<stop stop-color="#E30613"/>
<stop offset="1" stop-color="#BE1622"/>
</linearGradient>
<linearGradient id="paint9_linear_137_78" x1="23.8298" y1="46.3713" x2="23.8412" y2="46.4016" gradientUnits="userSpaceOnUse">
<stop stop-color="#E30613"/>
<stop offset="1" stop-color="#BE1622"/>
</linearGradient>
<linearGradient id="paint10_linear_137_78" x1="28.4091" y1="28.3282" x2="28.4791" y2="28.5155" gradientUnits="userSpaceOnUse">
<stop stop-color="#E30613"/>
<stop offset="1" stop-color="#BE1622"/>
</linearGradient>
<linearGradient id="paint11_linear_137_78" x1="20.8136" y1="25.2245" x2="21.4385" y2="26.8964" gradientUnits="userSpaceOnUse">
<stop stop-color="#E30613"/>
<stop offset="1" stop-color="#BE1622"/>
</linearGradient>
<linearGradient id="paint12_linear_137_78" x1="83.9269" y1="49.1512" x2="93.202" y2="73.9699" gradientUnits="userSpaceOnUse">
<stop stop-color="#E30613"/>
<stop offset="1" stop-color="#BE1622"/>
</linearGradient>
<linearGradient id="paint13_linear_137_78" x1="80.091" y1="51.7809" x2="87.9269" y2="72.7484" gradientUnits="userSpaceOnUse">
<stop stop-color="#E30613"/>
<stop offset="1" stop-color="#BE1622"/>
</linearGradient>
<linearGradient id="paint14_linear_137_78" x1="92.3931" y1="57.5959" x2="95.2603" y2="65.2683" gradientUnits="userSpaceOnUse">
<stop stop-color="#E30613"/>
<stop offset="1" stop-color="#BE1622"/>
</linearGradient>
<linearGradient id="paint15_linear_137_78" x1="59.5191" y1="60.7774" x2="63.1559" y2="70.5093" gradientUnits="userSpaceOnUse">
<stop stop-color="#E30613"/>
<stop offset="1" stop-color="#BE1622"/>
</linearGradient>
<linearGradient id="paint16_linear_137_78" x1="60.7108" y1="60.7136" x2="61.2425" y2="62.1363" gradientUnits="userSpaceOnUse">
<stop stop-color="#E30613"/>
<stop offset="1" stop-color="#BE1622"/>
</linearGradient>
<linearGradient id="paint17_linear_137_78" x1="60.8498" y1="62.5987" x2="61.407" y2="64.0896" gradientUnits="userSpaceOnUse">
<stop stop-color="#E30613"/>
<stop offset="1" stop-color="#BE1622"/>
</linearGradient>
<linearGradient id="paint18_linear_137_78" x1="60.9861" y1="64.5646" x2="61.5433" y2="66.0555" gradientUnits="userSpaceOnUse">
<stop stop-color="#E30613"/>
<stop offset="1" stop-color="#BE1622"/>
</linearGradient>
<linearGradient id="paint19_linear_137_78" x1="61.1473" y1="66.5992" x2="61.7045" y2="68.0901" gradientUnits="userSpaceOnUse">
<stop stop-color="#E30613"/>
<stop offset="1" stop-color="#BE1622"/>
</linearGradient>
<linearGradient id="paint20_linear_137_78" x1="61.3082" y1="68.634" x2="61.8654" y2="70.125" gradientUnits="userSpaceOnUse">
<stop stop-color="#E30613"/>
<stop offset="1" stop-color="#BE1622"/>
</linearGradient>
<linearGradient id="paint21_linear_137_78" x1="67.0012" y1="69.1038" x2="70.5848" y2="78.6931" gradientUnits="userSpaceOnUse">
<stop stop-color="#E30613"/>
<stop offset="1" stop-color="#BE1622"/>
</linearGradient>
<linearGradient id="paint22_linear_137_78" x1="68.1149" y1="69.8917" x2="70.7808" y2="77.0252" gradientUnits="userSpaceOnUse">
<stop stop-color="#E30613"/>
<stop offset="1" stop-color="#BE1622"/>
</linearGradient>
<linearGradient id="paint23_linear_137_78" x1="63.644" y1="47.48" x2="67.07" y2="56.6473" gradientUnits="userSpaceOnUse">
<stop stop-color="#E30613"/>
<stop offset="1" stop-color="#BE1622"/>
</linearGradient>
<linearGradient id="paint24_linear_137_78" x1="64.8851" y1="48.4628" x2="67.5667" y2="55.6388" gradientUnits="userSpaceOnUse">
<stop stop-color="#E30613"/>
<stop offset="1" stop-color="#BE1622"/>
</linearGradient>
<linearGradient id="paint25_linear_137_78" x1="10.644" y1="29.843" x2="17.707" y2="48.7425" gradientUnits="userSpaceOnUse">
<stop stop-color="#E30613"/>
<stop offset="1" stop-color="#BE1622"/>
</linearGradient>
<linearGradient id="paint26_linear_137_78" x1="24.5716" y1="31.4594" x2="30.9492" y2="48.525" gradientUnits="userSpaceOnUse">
<stop stop-color="#E30613"/>
<stop offset="1" stop-color="#BE1622"/>
</linearGradient>
<linearGradient id="paint27_linear_137_78" x1="20.1793" y1="39.9408" x2="22.8538" y2="47.0976" gradientUnits="userSpaceOnUse">
<stop stop-color="#E30613"/>
<stop offset="1" stop-color="#BE1622"/>
</linearGradient>
<linearGradient id="paint28_linear_137_78" x1="9.65097" y1="45.73" x2="13.1836" y2="55.1828" gradientUnits="userSpaceOnUse">
<stop stop-color="#E30613"/>
<stop offset="1" stop-color="#BE1622"/>
</linearGradient>
<linearGradient id="paint29_linear_137_78" x1="50.3379" y1="62.9826" x2="53.2196" y2="70.6932" gradientUnits="userSpaceOnUse">
<stop stop-color="#E30613"/>
<stop offset="1" stop-color="#BE1622"/>
</linearGradient>
<linearGradient id="paint30_linear_137_78" x1="30.8372" y1="52.9383" x2="40.7164" y2="79.3734" gradientUnits="userSpaceOnUse">
<stop stop-color="#E30613"/>
<stop offset="1" stop-color="#BE1622"/>
</linearGradient>
<linearGradient id="paint31_linear_137_78" x1="52.3593" y1="57.0132" x2="53.6331" y2="60.4211" gradientUnits="userSpaceOnUse">
<stop stop-color="#E30613"/>
<stop offset="1" stop-color="#BE1622"/>
</linearGradient>
<linearGradient id="paint32_linear_137_78" x1="22.6493" y1="50.8496" x2="29.452" y2="69.0526" gradientUnits="userSpaceOnUse">
<stop stop-color="#E30613"/>
<stop offset="1" stop-color="#BE1622"/>
</linearGradient>
<linearGradient id="paint33_linear_137_78" x1="45.5051" y1="42.3085" x2="52.3078" y2="60.5112" gradientUnits="userSpaceOnUse">
<stop stop-color="#E30613"/>
<stop offset="1" stop-color="#BE1622"/>
</linearGradient>
<clipPath id="clip0_137_78">
<rect width="311.091" height="87" fill="white"/>
</clipPath>
</defs>
</svg>
